<mxfile host="65bd71144e">
    <diagram id="kU5taTKpwTPHEFpsuApJ" name="Page-1">
        <mxGraphModel dx="623" dy="344" grid="1" gridSize="10" guides="1" tooltips="1" connect="1" arrows="1" fold="1" page="1" pageScale="1" pageWidth="850" pageHeight="1100" math="0" shadow="0">
            <root>
                <mxCell id="0"/>
                <mxCell id="1" parent="0"/>
                <mxCell id="8" value="&lt;h1&gt;Algortima Memasak Air&lt;/h1&gt;&lt;div&gt;1. Mulai&lt;/div&gt;&lt;div&gt;2. Siapkan baskom/panci&lt;/div&gt;&lt;div&gt;3. Siapkan Kompor&lt;/div&gt;&lt;div&gt;4. Masukkan air ke dalam baskom/ panci secukupnya&lt;/div&gt;&lt;div&gt;5. Taruh baskom/panci ke atas kompor&lt;/div&gt;&lt;div&gt;6. Nyalakan kompor&lt;/div&gt;&lt;div&gt;7. Masak air hinga mendidih&lt;/div&gt;&lt;div&gt;8. Angkat panci/baskom dari atas kompor&lt;/div&gt;&lt;div&gt;9. Matikan kompor&lt;/div&gt;&lt;div&gt;10. Selesai&lt;/div&gt;" style="text;html=1;strokeColor=none;fillColor=none;spacing=5;spacingTop=-20;whiteSpace=wrap;overflow=hidden;rounded=0;" parent="1" vertex="1">
                    <mxGeometry x="30" y="20" width="190" height="280" as="geometry"/>
                </mxCell>
            </root>
        </mxGraphModel>
    </diagram>
</mxfile>